<svg width="386" height="1388" viewBox="0 0 386 1388" fill="none" xmlns="http://www.w3.org/2000/svg">
<path d="M145.326 305.296C149.442 302.834 153.033 300.408 153.305 299.909C153.577 299.409 154.801 299 156.025 299C157.485 299 158.754 299.854 159.725 301.499C160.532 302.87 164.104 306.332 167.659 309.185C171.204 312.047 177.995 317.053 182.728 320.315C187.461 323.586 191.95 326.266 192.702 326.284C193.455 326.302 198.75 322.986 204.49 318.916C210.229 314.854 217.057 309.73 219.677 307.531C222.298 305.342 224.637 302.725 224.891 301.726C225.154 300.663 226.378 299.691 227.838 299.382C229.624 299 231.229 299.472 233.505 301.072C235.246 302.298 239.127 304.751 242.119 306.532C245.111 308.313 251.032 311.229 255.266 313.019C259.501 314.809 263.481 316.272 264.107 316.272C264.733 316.263 265.44 316.871 265.694 317.626C265.948 318.38 267.063 318.979 268.187 318.961C269.312 318.952 272.875 320.324 276.121 322.023C279.367 323.713 284.463 326.439 287.455 328.074C290.447 329.71 295.471 333.553 298.626 336.606C301.772 339.658 305.744 344.61 307.448 347.608C310.25 352.542 310.758 354.622 312.807 369.414C314.049 378.409 315.899 388.83 316.906 392.582C317.921 396.326 319.172 402.458 319.68 406.211C320.197 409.954 321.213 416.087 321.938 419.839C322.663 423.582 324.286 434.622 325.547 444.37C326.807 454.119 328.648 468.429 329.636 476.17C330.624 483.911 331.431 493.624 331.431 497.749C331.431 501.874 332.048 510.659 332.81 517.283C333.562 523.906 335.194 535.354 336.437 542.723C337.67 550.091 339.746 563.383 341.034 572.251C342.33 581.119 344.153 590.831 345.087 593.829C346.021 596.828 349.448 604.696 352.712 611.319C356.938 619.914 360.057 624.921 363.62 628.809C366.368 631.807 368.607 634.669 368.607 635.169C368.607 635.669 369.614 637.404 370.838 639.031C372.062 640.657 374.138 644.636 375.444 647.889C376.759 651.142 379.443 658.901 381.401 665.152C383.369 671.394 384.983 677.526 385.001 678.78C385.01 680.025 384.747 682.278 384.411 683.777C384.067 685.276 382.924 687.43 381.863 688.575C380.812 689.71 378.926 690.646 377.674 690.655C376.432 690.664 374.9 690.146 374.274 689.492C373.649 688.847 373.34 687.602 373.594 686.73C373.839 685.858 373.948 685.14 373.821 685.131C373.694 685.122 370.121 686.294 365.887 687.73C361.653 689.156 355.732 691.573 352.739 693.09C349.747 694.617 343.418 698.405 338.685 701.531C333.952 704.647 328.639 708.572 326.898 710.262C325.157 711.943 323.216 713.315 322.591 713.315C321.965 713.306 320.623 712.179 319.599 710.807C318.574 709.435 317.296 707.082 316.751 705.583C315.79 702.93 315.682 702.884 312.49 703.92C310.685 704.511 304.121 705.647 297.883 706.455C291.653 707.264 282.269 708.727 277.028 709.699C271.787 710.671 261.994 712.088 255.266 712.851C248.538 713.615 238.746 715.077 233.505 716.104C228.128 717.158 217.275 718.294 208.57 718.712C200.092 719.121 186.02 719.13 177.288 718.73C167.822 718.303 157.576 717.249 151.9 716.122C146.668 715.087 136.866 713.606 130.138 712.833C123.41 712.061 112.185 710.444 105.203 709.235C98.2213 708.036 88.6372 706.573 83.8951 705.992C79.1619 705.41 73.9573 704.365 72.3343 703.666C70.7113 702.975 69.1698 702.712 68.9069 703.084C68.6439 703.457 68.4444 704.375 68.4626 705.129C68.4807 705.883 67.4652 708.027 66.2139 709.899C64.9717 711.77 63.3396 713.306 62.587 713.306C61.8344 713.306 59.6945 711.816 57.8267 709.989C55.9588 708.163 50.7542 704.238 46.2659 701.267C41.7776 698.287 35.8658 694.716 33.1184 693.326C30.3801 691.936 24.5589 689.529 20.1975 687.966C15.8362 686.412 12.0642 685.14 11.8103 685.14C11.5655 685.14 11.2572 686.267 11.1303 687.639C10.958 689.547 10.3686 690.21 8.63681 690.428C7.39459 690.592 5.43606 690.183 4.29359 689.519C3.15111 688.865 1.94517 687.502 1.61874 686.503C1.29232 685.504 0.965897 684.486 0.902427 684.232C0.838956 683.977 0.4944 682.76 0.131709 681.506C-0.303519 679.952 0.639476 675.5 3.13298 667.423C5.12777 660.927 7.81168 652.959 9.0811 649.706C10.3505 646.453 12.8803 641.347 14.7118 638.349C16.5344 635.351 20.0343 630.654 22.4916 627.901C25.4384 624.612 28.9112 618.879 32.6832 611.092C35.8295 604.596 39.2116 596.628 40.1999 593.375C41.1973 590.122 43.0924 579.901 44.4071 570.661C45.7309 561.421 47.6079 549.564 48.5781 544.313C49.5573 539.061 51.1622 527.722 52.1596 519.1C53.157 510.478 53.9731 499.648 53.9822 495.023C53.9822 490.398 54.5715 482.53 55.2788 477.533C55.986 472.536 57.2373 463.341 58.0443 457.09C58.8603 450.848 60.3202 440.209 61.2904 433.468C62.2606 426.726 63.8292 416.296 64.7813 410.299C65.7243 404.303 67.5286 395.308 68.7799 390.311C70.0221 385.314 71.7177 375.501 72.5428 368.505C73.7941 357.839 74.5195 354.759 77.0493 349.425C79.1257 345.037 81.8549 341.303 85.8354 337.378C89.009 334.252 94.0504 330.273 97.0426 328.537C100.035 326.802 105.239 323.94 108.603 322.187C111.967 320.424 115.44 319.007 116.311 319.025C117.181 319.052 118.45 318.48 119.14 317.771C119.82 317.053 121.243 316.254 122.313 315.999C123.374 315.736 127.309 314.237 131.045 312.647C134.79 311.066 141.209 307.759 145.326 305.296Z" fill="#A7A7A7"/>
<path d="M132.593 318.28C135.486 317.135 141.516 314 146.004 311.302C150.492 308.613 154.264 306.378 154.391 306.341C154.518 306.296 158.39 309.267 163.005 312.937C167.62 316.599 175.228 322.223 188.439 331.254L182.636 336.524C179.444 339.413 174.285 344.019 171.165 346.745C166.07 351.197 165.29 351.588 163.458 350.625C162.334 350.043 158.154 347.317 154.164 344.574C150.175 341.83 144.263 337.332 141.017 334.589C137.771 331.845 133.4 327.72 131.306 325.43C129.202 323.141 127.452 321.06 127.416 320.806C127.38 320.56 129.71 319.415 132.593 318.28Z" fill="white"/>
<path d="M206.755 324.231C212.241 320.451 219.785 314.873 223.53 311.847C227.266 308.813 230.33 306.305 230.33 306.269C230.33 306.232 234.003 308.367 238.491 311.02C242.979 313.664 249.217 316.844 252.355 318.089C255.492 319.334 258.04 320.56 258.031 320.806C258.013 321.06 255.039 324.149 251.421 327.692C247.803 331.227 242.798 335.761 240.304 337.778C237.811 339.785 232.207 343.847 219.948 352.151L216.983 349.689C215.342 348.335 210.128 343.601 196.781 331.109L206.755 324.231Z" fill="white"/>
<path d="M110.643 327.62C113.137 326.193 116.401 324.731 117.897 324.376C119.393 324.013 120.826 323.668 121.071 323.604C121.316 323.549 123.972 326.012 126.965 329.092C129.957 332.172 134.853 336.824 137.845 339.431C140.837 342.048 146.958 346.763 151.446 349.925C155.934 353.087 160.931 356.203 162.554 356.867C164.177 357.521 166.108 358.057 166.861 358.057C167.613 358.057 170.977 355.595 174.341 352.578C177.705 349.562 180.579 347.208 180.724 347.354C180.869 347.49 180.507 415.269 179.917 497.976C179.328 580.682 179.129 663.062 180.099 713.76L172.573 713.015C168.438 712.597 159.743 711.289 153.26 710.108C146.777 708.926 136.984 707.491 131.498 706.937C126.013 706.373 115.612 704.956 108.377 703.784C101.141 702.612 91.1485 701.185 86.1615 700.604C81.1745 700.022 75.3624 698.76 73.2406 697.797C70.3573 696.479 69.3871 695.534 69.4052 693.999C69.4143 692.872 69.9946 688.475 70.6928 684.232C71.3909 679.989 72.5062 674.528 73.1681 672.102C73.83 669.676 75.0904 667.323 75.9608 666.878C76.8313 666.424 77.5385 665.552 77.5204 664.925C77.5113 664.298 76.8948 663.18 76.1512 662.426C74.9634 661.218 75.2626 659.5 78.7807 647.435C80.975 639.939 84.2392 629.618 86.0527 624.493C87.8571 619.369 89.7431 612.319 90.2418 608.821C90.7405 605.323 92.1822 597.654 93.4516 591.785C94.721 585.916 96.1808 578.656 96.6886 575.658C97.2054 572.66 98.4114 566.936 99.3816 562.938C100.86 556.824 101.304 549.61 102.211 517.51C103.054 487.482 103.045 477.024 102.166 468.447C101.558 462.451 99.7805 450.394 98.221 441.645C96.6614 432.904 94.8207 422.065 94.1316 417.568C93.4334 413.07 92.572 408.373 92.2184 407.119C91.756 405.502 90.8583 404.784 89.0902 404.621C87.5941 404.484 86.6149 404.848 86.6058 405.529C86.6058 406.156 87.2496 410.962 88.0294 416.205C88.8091 421.456 90.006 428.198 90.677 431.196C91.357 434.194 92.1731 438.901 92.5086 441.645C92.835 444.398 93.4606 448.077 93.9049 449.822C94.3402 451.566 95.3466 460.57 96.1446 469.81C97.3414 483.775 97.423 489.962 96.6342 506.38C96.1083 517.246 95.8635 526.45 96.0811 526.823C96.2987 527.195 96.1355 533.837 95.7093 541.587C95.2922 549.337 94.3039 558.123 93.5241 561.121C92.7443 564.119 91.5112 569.843 90.7767 573.841C90.0514 577.839 88.4374 586.016 87.2042 592.012C85.9711 598.009 84.6835 604.959 84.3571 607.458C84.0307 609.956 81.1836 619.769 78.0463 629.263C74.9 638.758 71.5995 649.388 70.7018 652.886C69.8132 656.384 69.0425 659.355 69.0062 659.5C68.97 659.637 67.1021 659.055 64.8534 658.201C62.6048 657.347 56.4844 654.194 51.2525 651.196C46.0207 648.198 37.5247 643.664 23.0352 636.532L26.9614 632.443C29.5365 629.763 33.1634 623.812 37.4884 615.181C41.1153 607.939 44.9055 599.353 45.9119 596.101C46.9184 592.848 48.9313 582.018 50.3912 572.024C51.8419 562.03 53.8367 549.355 54.816 543.858C55.7952 538.361 57.2188 527.322 57.9805 519.327C58.7421 511.332 59.803 498.657 60.3289 491.162C60.8548 483.666 61.8703 473.445 62.5866 468.447C63.2939 463.45 64.5179 454.256 65.2887 448.005C66.0594 441.763 67.7187 430.106 68.979 422.111C70.2394 414.115 72.5153 402.258 74.0295 395.762C75.5528 389.266 77.5385 377.818 78.4362 370.322C79.8053 358.938 80.5217 355.794 82.8157 351.243C84.3934 348.108 87.8027 343.629 90.8493 340.694C93.7599 337.887 98.3842 334.38 101.123 332.899C103.861 331.427 108.15 329.046 110.643 327.62Z" fill="white"/>
<path d="M233.904 349.68C239.861 345.546 249.028 337.996 254.287 332.917C263.01 324.476 264.071 323.722 266.573 324.204C268.087 324.485 272.177 326.357 275.668 328.356C279.159 330.346 283.855 332.98 286.095 334.189C288.335 335.397 292.342 338.504 294.981 341.094C297.638 343.692 300.974 348.226 302.452 351.243C304.619 355.676 305.454 359.329 306.895 370.777C307.865 378.527 309.86 389.975 311.311 396.216C312.762 402.467 314.82 413.098 315.89 419.839C316.951 426.59 318.646 438.447 319.662 446.188C320.678 453.938 322.119 464.768 322.863 470.265C323.606 475.761 324.595 484.556 325.057 489.799C325.519 495.05 325.719 499.648 325.492 500.02C325.266 500.393 325.937 508.57 326.97 518.191C328.004 527.813 329.817 540.996 330.987 547.493C332.157 553.989 333.988 565.637 335.04 573.387C336.101 581.137 337.597 589.923 338.377 592.921C339.148 595.919 341.596 602.461 343.817 607.458C346.03 612.455 349.638 619.614 351.833 623.358C354.027 627.11 357.246 631.608 362.178 636.532L351.107 642.074C345.023 645.118 336.781 649.561 332.791 651.932C328.802 654.313 323.497 657.047 321.004 658.001C318.51 658.955 316.434 659.628 316.38 659.491C316.334 659.355 314.983 654.549 313.387 648.798C311.783 643.055 308.5 632.625 306.088 625.629C303.676 618.633 301.419 610.865 301.074 608.366C300.73 605.868 299.433 598.917 298.2 592.921C296.967 586.924 295.353 578.747 294.627 574.75C293.893 570.752 292.687 565.237 291.934 562.484C291.191 559.731 290.212 551.554 289.776 544.313C289.332 537.071 288.842 523.779 288.679 514.784C288.516 505.789 288.398 493.115 288.407 486.619C288.425 480.122 288.906 470.11 289.495 464.359C290.076 458.617 291.191 450.231 291.971 445.733C292.741 441.236 294.165 433.268 295.126 428.016C296.087 422.774 297.302 415.714 297.828 412.344C298.363 408.973 298.59 405.802 298.336 405.302C298.082 404.802 297.166 404.375 296.296 404.357C295.425 404.33 294.246 404.839 293.675 405.493C293.113 406.138 292.36 409.327 292.007 412.571C291.662 415.823 290.801 421.138 290.103 424.382C289.395 427.635 287.836 435.812 286.63 442.553C285.424 449.304 283.928 460.343 283.302 467.085C282.414 476.688 282.377 487.736 283.157 517.964C283.892 546.584 284.499 557.986 285.506 562.03C286.258 565.028 288.734 576.685 291.009 587.924C293.285 599.172 295.144 609.393 295.153 610.638C295.162 611.892 297.266 619.042 299.823 626.538C302.38 634.033 305.816 644.873 307.467 650.615C310.069 659.664 310.295 661.245 309.189 662.426C308.482 663.18 307.893 664.298 307.884 664.925C307.865 665.552 308.573 666.451 309.443 666.923C310.314 667.396 311.529 669.749 312.127 672.148C312.735 674.546 313.859 680.288 314.621 684.913C315.391 689.538 316.017 693.935 316.017 694.68C316.017 695.434 314.285 696.833 312.163 697.797C310.042 698.76 304.23 700.022 299.243 700.604C294.256 701.176 285.279 702.467 279.295 703.457C273.31 704.456 261.885 706.037 253.906 706.991C245.927 707.936 234.91 709.517 229.425 710.498C223.939 711.479 216.186 712.579 204.943 713.596L205.659 680.061C206.049 661.617 205.913 584.38 205.36 508.424C204.807 432.468 204.49 365.107 204.943 347.127L211.063 352.587C216.431 357.384 217.547 358.002 220.131 357.63C221.853 357.384 227.566 354.095 233.904 349.68Z" fill="white"/>
<path d="M187.188 340.34L189.718 338.332C191.114 337.223 192.447 336.297 192.701 336.26C192.955 336.233 194.261 337.341 198.069 341.248L199.075 461.179C199.629 527.141 200.055 607.485 200.018 639.712C199.991 671.939 199.656 701.694 198.595 713.324L185.447 713.306L185.23 673.556C185.112 651.696 185.139 614.799 185.293 591.558C185.456 568.326 185.946 502.291 187.188 340.34Z" fill="white"/>
<path d="M15.4186 650.615C16.7243 647.371 18.2295 644.2 18.7554 643.573C19.2903 642.946 20.188 642.429 20.7502 642.41C21.3214 642.392 27.0882 645.1 33.5713 648.407C40.0544 651.723 47.6074 655.803 50.3457 657.474C53.084 659.146 57.9804 661.59 61.2264 662.908C64.4725 664.234 67.4284 665.579 67.8002 665.915C68.1719 666.242 67.8999 668.559 67.1927 671.057C66.4945 673.556 65.4608 678.462 64.8987 681.96C64.3456 685.458 63.593 692.145 62.5865 705.338L52.1592 698.314C46.4196 694.453 38.4676 689.656 34.478 687.657C30.4884 685.649 22.7359 682.414 17.2502 680.47C11.7645 678.526 7.17654 676.836 7.0496 676.718C6.92266 676.6 8.21927 672.011 9.93299 666.515C11.6466 661.018 14.122 653.867 15.4186 650.615Z" fill="white"/>
<path d="M333.697 658.101C337.687 655.821 346.02 651.342 352.222 648.162C358.414 644.973 364.127 642.483 364.916 642.628C365.695 642.774 367.219 644.736 368.289 646.98C369.368 649.225 372.106 656.793 374.391 663.789C376.667 670.785 378.444 676.591 378.335 676.691C378.217 676.79 373.439 678.553 367.699 680.597C361.96 682.642 354.008 685.985 350.018 688.02C346.029 690.056 338.276 694.753 332.79 698.46C324.721 703.902 322.689 704.92 322.136 703.793C321.765 703.03 321.665 701.685 321.919 700.813C322.182 699.941 321.955 695.334 321.438 690.592C320.912 685.849 319.842 679.098 319.072 675.6C318.292 672.102 317.467 668.423 317.231 667.423C316.877 665.915 317.621 665.324 321.62 663.925C324.276 663.008 329.708 660.382 333.697 658.101Z" fill="white"/>
<path d="M188.894 365.852C188.794 364.626 189.293 363.463 190.027 363.199C190.753 362.945 191.95 362.691 192.702 362.627C193.455 362.572 194.507 363.127 195.051 363.881C195.604 364.626 195.921 365.971 195.776 366.87C195.622 367.769 194.77 368.76 193.872 369.078C192.983 369.396 191.533 369.296 190.662 368.851C189.792 368.415 188.994 367.061 188.894 365.852Z" fill="#A7A7A7"/>
<path d="M188.901 386.041C188.829 385.187 189.545 384.078 190.506 383.569C191.467 383.061 192.555 382.634 192.927 382.615C193.299 382.597 194.224 383.197 194.967 383.951C195.72 384.705 196.327 385.523 196.327 385.768C196.327 386.023 195.919 387.04 195.42 388.04C194.922 389.039 193.797 389.866 192.927 389.875C192.057 389.884 190.823 389.366 190.189 388.739C189.563 388.103 188.983 386.886 188.901 386.041Z" fill="#A7A7A7"/>
<path d="M190.208 408.773C189.582 408.11 189.337 406.838 189.655 405.938C190.063 404.812 190.997 404.385 192.611 404.575C194.451 404.784 194.968 405.348 194.968 407.119C194.968 408.691 194.406 409.482 193.155 409.682C192.157 409.845 190.833 409.436 190.208 408.773Z" fill="#A7A7A7"/>
<path d="M189.618 429.688C188.875 428.552 188.929 427.817 189.854 426.735C190.534 425.936 191.659 425.291 192.348 425.291C193.046 425.291 194.216 425.899 194.968 426.654C195.975 427.662 196.092 428.489 195.421 429.834C194.859 430.951 193.762 431.56 192.565 431.424C191.495 431.296 190.172 430.515 189.618 429.688Z" fill="#A7A7A7"/>
<path d="M189.527 451.639C189.273 451.139 189.3 449.913 189.572 448.913C189.935 447.623 190.851 447.096 192.746 447.096C194.314 447.096 195.611 447.66 195.874 448.459C196.128 449.213 196.128 450.431 195.874 451.185C195.602 451.993 194.314 452.548 192.7 452.548C191.204 452.548 189.781 452.139 189.527 451.639Z" fill="#A7A7A7"/>
<path d="M189.628 475.116C188.867 473.972 188.93 473.245 189.91 472.118C190.608 471.3 192.04 470.755 193.083 470.901C194.516 471.11 194.969 471.827 194.969 473.899C194.969 476.17 194.606 476.625 192.802 476.625C191.605 476.625 190.182 475.943 189.628 475.116Z" fill="#A7A7A7"/>
<path d="M189.329 497.358C188.54 496.168 188.495 495.25 189.193 494.06C189.864 492.906 190.998 492.506 193.011 492.697C195.531 492.942 195.876 493.315 195.876 495.705C195.876 498.067 195.513 498.467 193.156 498.721C191.297 498.921 190.082 498.494 189.329 497.358Z" fill="#A7A7A7"/>
<path d="M188.894 517.583C188.794 516.356 189.293 515.193 190.027 514.93C190.753 514.675 191.542 514.448 191.796 514.412C192.049 514.385 193.255 514.603 194.489 514.902C195.84 515.23 196.665 516.038 196.565 516.938C196.483 517.746 195.776 518.927 195.005 519.554C194.244 520.181 192.593 520.49 191.342 520.236C189.746 519.918 189.021 519.127 188.894 517.583Z" fill="#A7A7A7"/>
<path d="M188.91 540.152C188.829 539.107 189.11 537.98 189.527 537.653C189.944 537.317 191.44 537.044 192.854 537.044C194.477 537.044 195.629 537.626 195.992 538.634C196.3 539.506 196.101 541.142 195.538 542.268C194.976 543.395 193.797 544.322 192.927 544.331C192.057 544.34 190.823 543.822 190.189 543.195C189.563 542.559 188.983 541.187 188.91 540.152Z" fill="#A7A7A7"/>
<path d="M189.527 565.21C189.273 564.21 189.3 562.984 189.572 562.484C189.844 561.984 191.277 561.576 192.746 561.576C194.314 561.576 195.611 562.139 195.874 562.938C196.128 563.692 196.128 564.91 195.874 565.664C195.602 566.473 194.314 567.027 192.7 567.027C190.733 567.027 189.853 566.518 189.527 565.21Z" fill="#A7A7A7"/>
<path d="M188.993 589.577C188.966 589.241 189.618 588.324 190.434 587.533C191.251 586.752 192.302 586.107 192.765 586.107C193.227 586.107 194.225 586.715 194.968 587.47C195.975 588.478 196.092 589.305 195.421 590.65C194.923 591.649 193.798 592.476 192.928 592.485C192.058 592.494 190.824 591.976 190.19 591.349C189.564 590.713 189.02 589.914 188.993 589.577Z" fill="#A7A7A7"/>
<path d="M189.98 617.907C189.345 616.644 189.4 615.662 190.134 614.681C190.715 613.909 192.038 613.4 193.081 613.545C194.514 613.754 194.967 614.472 194.967 616.544C194.967 618.697 194.541 619.315 192.927 619.497C191.639 619.642 190.551 619.051 189.98 617.907Z" fill="#A7A7A7"/>
<path d="M189.337 642.438C188.548 641.193 188.159 639.449 188.467 638.576C188.842 637.516 190.02 636.974 192.003 636.95C193.635 636.923 195.585 637.568 196.328 638.386C197.543 639.694 197.525 640.121 196.156 642.283C195.285 643.673 193.807 644.709 192.701 644.709C191.631 644.709 190.135 643.701 189.337 642.438Z" fill="#A7A7A7"/>
<path d="M189.627 665.915C188.866 664.77 188.929 664.043 189.854 662.962C190.534 662.163 191.758 661.499 192.574 661.481C193.39 661.454 194.678 662.108 195.421 662.917C196.455 664.053 196.546 664.761 195.775 665.915C195.222 666.742 193.844 667.423 192.701 667.423C191.559 667.423 190.181 666.742 189.627 665.915Z" fill="#A7A7A7"/>
<path d="M188.894 686.576C188.794 685.349 189.293 684.186 190.027 683.923C190.753 683.668 191.85 683.432 192.476 683.396C193.101 683.36 194.226 683.523 194.969 683.777C195.722 684.032 196.347 684.95 196.365 685.822C196.393 686.694 195.776 687.921 195.005 688.547C194.244 689.174 192.593 689.483 191.342 689.229C189.746 688.911 189.021 688.12 188.894 686.576Z" fill="#A7A7A7"/>
<path d="M189.248 703.766C189.084 702.767 189.483 701.649 190.145 701.286C190.798 700.913 191.959 700.613 192.702 700.613C193.455 700.613 194.606 700.913 195.259 701.286C195.921 701.649 196.32 702.767 196.157 703.766C195.921 705.174 195.141 705.583 192.702 705.583C190.263 705.583 189.483 705.174 189.248 703.766Z" fill="#A7A7A7"/>
</svg>
