<svg width="40" height="26" viewBox="0 0 40 26" fill="none" xmlns="http://www.w3.org/2000/svg">
<path fill-rule="evenodd" clip-rule="evenodd" d="M16.167 0.242306C16.5516 0.0373337 17.269 -0.0478006 17.9609 0.0264852C18.5967 0.0931409 19.4021 0.370214 19.7559 0.636837C20.125 0.918861 20.5245 1.60385 20.6963 2.255C20.8603 2.87816 21.0046 4.42433 21.0303 8.00012L22.0635 9.02551C22.6325 9.5894 23.0938 10.1382 23.0938 10.2433C23.0909 10.3483 22.8856 10.43 22.6396 10.4249C22.3933 10.4202 21.6042 11.0276 20.8867 11.7706C20.1715 12.5167 19.3812 13.5323 19.1377 14.0245C18.8916 14.5167 18.7559 15.0654 18.8379 15.2423C18.9199 15.4191 19.2171 15.5625 19.499 15.5626C19.8144 15.5626 20.2966 15.1445 20.7529 14.4728C21.158 13.8729 22.0809 12.8352 22.8037 12.1661C24.0727 10.9869 24.1319 10.9609 25.2676 11.7941L24.4268 12.7169C23.9654 13.2244 23.4044 14.1011 23.1787 14.6652C22.9531 15.2292 22.8425 15.8937 22.9297 16.1398C23.017 16.3858 23.3197 16.588 23.6016 16.588C23.9501 16.5878 24.2451 16.2805 24.5244 15.6271C24.75 15.099 25.2114 14.291 25.5498 13.8321C25.8882 13.3733 26.165 12.8271 26.165 12.6144C26.1651 12.294 26.4751 12.3355 28.0234 12.8507C29.0463 13.1917 31.0077 13.6531 32.3818 13.8761C33.756 14.0991 35.4866 14.5505 36.2275 14.8761C37.0273 15.2299 37.9732 15.932 39.5469 17.7413L39.4062 19.7931C39.3063 21.259 39.1245 22.0256 38.7734 22.4845C38.5042 22.8357 37.8909 23.4434 37.4141 23.8331C36.8577 24.2894 35.6785 24.777 34.1123 25.1974C32.7715 25.5588 30.754 25.915 29.626 25.9894C28.4185 26.0663 22.0991 25.7351 14.2441 25.1788C6.91201 24.661 0.709981 24.1303 0.463867 24.0021C0.189682 23.8559 0.015625 23.4688 0.015625 22.9972C0.0156562 22.4051 0.177255 22.1561 0.720703 21.9152C1.27714 21.6692 2.36992 21.6746 5.91211 21.9386C8.37832 22.1206 12.4747 22.3791 15.0127 22.5099C17.5507 22.6406 22.2217 22.7491 25.3955 22.7491C29.8099 22.7466 31.5254 22.654 32.7021 22.3439C33.5482 22.1234 34.7302 21.7178 35.3301 21.4435C36.0564 21.1119 36.6416 20.5829 37.0859 19.8566C37.5243 19.1388 37.6986 18.57 37.5986 18.1905C37.514 17.8727 37.1273 17.3953 36.7402 17.1261C36.353 16.8595 35.3144 16.3981 34.4326 16.1007C33.1256 15.6625 32.7536 15.6216 32.4102 15.8829C32.1769 16.0598 31.4286 17.0397 30.7441 18.0626C30.06 19.0849 29.2678 20.035 28.9854 20.1769C28.7034 20.3179 27.4625 20.4308 26.2295 20.4308C24.9964 20.4282 20.2942 20.2543 15.7822 20.0441C11.2701 19.8338 6.07815 19.652 4.24512 19.6417C1.50225 19.6263 0.830337 19.5466 0.456055 19.1954C0.102386 18.8647 3.18437e-06 18.3646 0 16.9728C0 15.373 0.0847838 15.0651 0.774414 14.1525C1.20255 13.5884 1.84291 12.7218 2.19922 12.2296C2.55813 11.7374 3.0222 10.6401 3.23242 9.79406C3.44262 8.94806 3.72777 7.36167 3.86621 6.26965C4.00465 5.17752 4.27354 3.96438 4.46582 3.57727C4.65816 3.19016 5.23537 2.67003 5.74805 2.42395C6.26084 2.17787 7.28653 1.97302 8.02734 1.96789C8.98584 1.96025 9.50357 2.09061 9.8291 2.41613C10.1649 2.74939 10.2496 3.11342 10.1445 3.76965C10.0676 4.26178 10.091 4.81274 10.2012 4.99231C10.3088 5.16919 10.916 5.43369 11.5518 5.57727C12.1874 5.71824 13.1102 5.76397 13.6025 5.67688C14.0948 5.58971 14.7031 5.47217 14.9492 5.4132C15.3309 5.32333 15.4081 4.95103 15.4619 2.94445C15.5234 0.711488 15.562 0.560202 16.167 0.242306ZM9.25781 7.61535C8.9835 7.61535 8.66554 7.75975 8.55273 7.93664C8.43992 8.11373 8.23176 8.64622 8.09082 9.12024C7.89598 9.77654 7.62432 10.0541 6.96289 10.2745C6.48098 10.4335 5.96339 10.7717 5.80957 11.0255C5.57628 11.4101 5.66852 11.6046 6.36328 12.1788C7.11181 12.7992 7.19884 13.0097 7.19629 14.2169C7.19373 15.4398 7.24499 15.5627 7.77051 15.5704C8.0884 15.573 8.63449 15.2862 8.98828 14.9298L9.62891 14.2843C10.9205 15.2761 11.4849 15.5348 11.7158 15.4991C11.9491 15.4633 12.2645 15.2325 12.4209 14.9864C12.6362 14.6455 12.6029 14.2424 12.2773 13.3195L11.8496 12.1017C13.0772 10.5639 13.1595 10.2998 12.9365 9.96399C12.7801 9.73069 12.3055 9.48206 11.8799 9.41027C11.4185 9.33329 10.8341 8.94392 10.4316 8.44934C10.0601 7.99063 9.53222 7.61566 9.25781 7.61535Z" fill="#E02189"/>
</svg>
