<svg width="47" height="47" viewBox="0 0 47 47" fill="none" xmlns="http://www.w3.org/2000/svg">
<g filter="url(#filter0_di_902_4411)">
<rect x="3.33337" y="1.6665" width="40" height="40" rx="20" fill="url(#paint0_linear_902_4411)" shape-rendering="crispEdges"/>
<rect x="4.16671" y="2.49984" width="38.3333" height="38.3333" rx="19.1667" stroke="url(#paint1_linear_902_4411)" stroke-width="1.66667" shape-rendering="crispEdges"/>
<path d="M17.3984 22.1722C17.403 21.9739 17.4399 21.7941 17.509 21.6326C17.5828 21.4666 17.6981 21.3075 17.8549 21.1554L24.6892 14.5147C24.9244 14.2795 25.2126 14.1619 25.5539 14.1619C25.7891 14.1619 26.0012 14.2173 26.1903 14.328C26.3793 14.4386 26.5315 14.5885 26.6468 14.7776C26.7621 14.9667 26.8197 15.1765 26.8197 15.4071C26.8197 15.7529 26.686 16.0573 26.4185 16.3202L20.359 22.1653L26.4185 28.0173C26.686 28.2848 26.8197 28.5892 26.8197 28.9304C26.8197 29.1656 26.7621 29.3777 26.6468 29.5668C26.5315 29.7559 26.3793 29.9058 26.1903 30.0164C26.0012 30.1271 25.7891 30.1825 25.5539 30.1825C25.2126 30.1825 24.9244 30.0649 24.6892 29.8297L17.8549 23.1821C17.6981 23.0299 17.5828 22.8708 17.509 22.7048C17.4352 22.5388 17.3984 22.3613 17.3984 22.1722Z" fill="white"/>
</g>
<defs>
<filter id="filter0_di_902_4411" x="4.07696e-05" y="-0.000162721" width="46.6667" height="46.6667" filterUnits="userSpaceOnUse" color-interpolation-filters="sRGB">
<feFlood flood-opacity="0" result="BackgroundImageFix"/>
<feColorMatrix in="SourceAlpha" type="matrix" values="0 0 0 0 0 0 0 0 0 0 0 0 0 0 0 0 0 0 127 0" result="hardAlpha"/>
<feOffset dy="1.66667"/>
<feGaussianBlur stdDeviation="1.66667"/>
<feComposite in2="hardAlpha" operator="out"/>
<feColorMatrix type="matrix" values="0 0 0 0 0 0 0 0 0 0 0 0 0 0 0 0 0 0 0.5 0"/>
<feBlend mode="normal" in2="BackgroundImageFix" result="effect1_dropShadow_902_4411"/>
<feBlend mode="normal" in="SourceGraphic" in2="effect1_dropShadow_902_4411" result="shape"/>
<feColorMatrix in="SourceAlpha" type="matrix" values="0 0 0 0 0 0 0 0 0 0 0 0 0 0 0 0 0 0 127 0" result="hardAlpha"/>
<feOffset dx="0.833333" dy="2.5"/>
<feComposite in2="hardAlpha" operator="arithmetic" k2="-1" k3="1"/>
<feColorMatrix type="matrix" values="0 0 0 0 1 0 0 0 0 1 0 0 0 0 1 0 0 0 0.25 0"/>
<feBlend mode="color-burn" in2="shape" result="effect2_innerShadow_902_4411"/>
</filter>
<linearGradient id="paint0_linear_902_4411" x1="23.3334" y1="1.6665" x2="23.3334" y2="41.6665" gradientUnits="userSpaceOnUse">
<stop stop-color="#F593BC"/>
<stop offset="0.716346" stop-color="#F32A92"/>
<stop offset="1" stop-color="#871A56"/>
</linearGradient>
<linearGradient id="paint1_linear_902_4411" x1="23.3334" y1="1.6665" x2="23.3334" y2="41.6665" gradientUnits="userSpaceOnUse">
<stop stop-color="#F32A92"/>
<stop offset="1" stop-color="#F593BC"/>
</linearGradient>
</defs>
</svg>
